# xmcd
#
# Track frame offsets: 
#        150
#        15488
#        29769
#        41402
#        52580
#        66936
#        84043
#        101487
#        116595
#        128513
#        144821
#        155414
#        172228
#        188342
#        208797
#        221577
#
# Disc length: 3137 seconds
#
# Revision: 0
# Processed by: cddbd v1.5.2PL0 Copyright (c) Steve Scherf et al.
# Submitted via: ExactAudioCopy v0.99pb5
#
DISCID=ca0c3f10
DTITLE=Jawbone Railroad - Corndog Posse
DYEAR=2010
DGENRE=Old Time
TTITLE0=It's Done Gone Wet
TTITLE1=Red Rocking Chair
TTITLE2=Little Maggie
TTITLE3=Adam and Eve
TTITLE4=How You Want Your Rollin' Done
TTITLE5=Michelle's Waltz
TTITLE6=Don't Let Your Deal Go Down
TTITLE7=Down on My Knees
TTITLE8=Seneca Square Dance
TTITLE9=One Sweet Letter from You
TTITLE10=I'm Getting Ready to Go
TTITLE11=Turpentine Farm
TTITLE12=Viola Lee Blues
TTITLE13=Blackest Crow
TTITLE14=Elzic's Farewell
TTITLE15=Crow Jane
EXTD=
EXTT0=
EXTT1=
EXTT2=
EXTT3=
EXTT4=
EXTT5=
EXTT6=
EXTT7=
EXTT8=
EXTT9=
EXTT10=
EXTT11=
EXTT12=
EXTT13=
EXTT14=
EXTT15=
PLAYORDER=
